HIERARCHY
ROOT hip
{
  OFFSET 0 0 0
  CHANNELS 6 Xposition Yposition Zposition Zrotation Yrotation Xrotation
  JOINT abdomen
  {
    OFFSET 0 20.6881 -0.73152
    CHANNELS 3 Zrotation Xrotation Yrotation
    JOINT chest
    {
      OFFSET 0 11.7043 -0.48768
      CHANNELS 3 Zrotation Xrotation Yrotation
      JOINT neck
      {
        OFFSET 0 22.1894 -2.19456
        CHANNELS 3 Zrotation Xrotation Yrotation
        JOINT head
        {
          OFFSET -0.24384 7.07133 1.2192
          CHANNELS 3 Zrotation Xrotation Yrotation
          JOINT leftEye
          {
            OFFSET 4.14528 8.04674 8.04672
            CHANNELS 3 Zrotation Xrotation Yrotation
            End Site
            {
              OFFSET 1 0 0
            }
          }
          JOINT rightEye
          {
            OFFSET -3.6576 8.04674 8.04672
            CHANNELS 3 Zrotation Xrotation Yrotation
            End Site
            {
              OFFSET 1 0 0
            }
          }
        }
      }
      JOINT rCollar
      {
        OFFSET -2.68224 19.2634 -4.8768
        CHANNELS 3 Zrotation Xrotation Yrotation
        JOINT rShldr
        {
          OFFSET -8.77824 -1.95073 1.46304
          CHANNELS 3 Zrotation Xrotation Yrotation
          JOINT rForeArm
          {
            OFFSET -28.1742 -1.7115 0.48768
            CHANNELS 3 Zrotation Xrotation Yrotation
            JOINT rHand
            {
              OFFSET -22.5879 0.773209 7.07136
              CHANNELS 3 Zrotation Xrotation Yrotation
              JOINT rThumb1
              {
                OFFSET -1.2192 -0.487915 3.41376
                CHANNELS 3 Zrotation Xrotation Yrotation
                JOINT rThumb2
                {
                  OFFSET -3.37035 -0.52449 3.41376
                  CHANNELS 3 Zrotation Xrotation Yrotation
                  End Site
                  {
                    OFFSET -1.78271 -1.18214 1.43049
                  }
                }
              }
              JOINT rIndex1
              {
                OFFSET -7.75947 0.938293 5.60832
                CHANNELS 3 Zrotation Xrotation Yrotation
                JOINT rIndex2
                {
                  OFFSET -2.54057 -0.884171 1.56538
                  CHANNELS 3 Zrotation Xrotation Yrotation
                  End Site
                  {
                    OFFSET -1.62519 -0.234802 1.16502
                  }
                }
              }
              JOINT rMid1
              {
                OFFSET -8.24714 1.18213 3.41376
                CHANNELS 3 Zrotation Xrotation Yrotation
                JOINT rMid2
                {
                  OFFSET -3.10165 -0.590103 1.0647
                  CHANNELS 3 Zrotation Xrotation Yrotation
                  End Site
                  {
                    OFFSET -2.48547 -0.328903 0.83742
                  }
                }
              }
              JOINT rRing1
              {
                OFFSET -8.82822 0.546677 1.51678
                CHANNELS 3 Zrotation Xrotation Yrotation
                JOINT rRing2
                {
                  OFFSET -2.60934 -0.819778 -0.0198488
                  CHANNELS 3 Zrotation Xrotation Yrotation
                  End Site
                  {
                    OFFSET -2.33842 -0.294052 0.168128
                  }
                }
              }
              JOINT rPinky1
              {
                OFFSET -8.27202 -0.0477905 -0.4584
                CHANNELS 3 Zrotation Xrotation Yrotation
                JOINT rPinky2
                {
                  OFFSET -1.82734 -0.647385 -0.700984
                  CHANNELS 3 Zrotation Xrotation Yrotation
                  End Site
                  {
                    OFFSET -1.69225 -0.51767 -0.607171
                  }
                }
              }
            }
          }
        }
      }
      JOINT lCollar
      {
        OFFSET 2.68224 19.2634 -4.8768
        CHANNELS 3 Zrotation Xrotation Yrotation
        JOINT lShldr
        {
          OFFSET 8.77824 -1.95073 1.46304
          CHANNELS 3 Zrotation Xrotation Yrotation
          JOINT lForeArm
          {
            OFFSET 28.1742 -1.7115 0.48768
            CHANNELS 3 Zrotation Xrotation Yrotation
            JOINT lHand
            {
              OFFSET 22.5879 0.773209 7.07136
              CHANNELS 3 Zrotation Xrotation Yrotation
              JOINT lThumb1
              {
                OFFSET 1.2192 -0.487915 3.41376
                CHANNELS 3 Zrotation Xrotation Yrotation
                JOINT lThumb2
                {
                  OFFSET 3.37035 -0.52449 3.41376
                  CHANNELS 3 Zrotation Xrotation Yrotation
                  End Site
                  {
                    OFFSET 1.78271 -1.18214 1.43049
                  }
                }
              }
              JOINT lIndex1
              {
                OFFSET 7.75947 0.938293 5.60832
                CHANNELS 3 Zrotation Xrotation Yrotation
                JOINT lIndex2
                {
                  OFFSET 2.54057 -0.884171 1.56538
                  CHANNELS 3 Zrotation Xrotation Yrotation
                  End Site
                  {
                    OFFSET 1.62519 -0.234802 1.16502
                  }
                }
              }
              JOINT lMid1
              {
                OFFSET 8.24714 1.18213 3.41376
                CHANNELS 3 Zrotation Xrotation Yrotation
                JOINT lMid2
                {
                  OFFSET 3.10165 -0.590103 1.0647
                  CHANNELS 3 Zrotation Xrotation Yrotation
                  End Site
                  {
                    OFFSET 2.48547 -0.328903 0.83742
                  }
                }
              }
              JOINT lRing1
              {
                OFFSET 8.82822 0.546677 1.51678
                CHANNELS 3 Zrotation Xrotation Yrotation
                JOINT lRing2
                {
                  OFFSET 2.60934 -0.819778 -0.0198488
                  CHANNELS 3 Zrotation Xrotation Yrotation
                  End Site
                  {
                    OFFSET 2.33842 -0.294052 0.168128
                  }
                }
              }
              JOINT lPinky1
              {
                OFFSET 8.27202 -0.0477905 -0.4584
                CHANNELS 3 Zrotation Xrotation Yrotation
                JOINT lPinky2
                {
                  OFFSET 1.82734 -0.647385 -0.700984
                  CHANNELS 3 Zrotation Xrotation Yrotation
                  End Site
                  {
                    OFFSET 1.69225 -0.51767 -0.607171
                  }
                }
              }
            }
          }
        }
      }
    }
  }
  JOINT rButtock
  {
    OFFSET -8.77824 4.35084 1.2192
    CHANNELS 3 Zrotation Xrotation Yrotation
    JOINT rThigh
    {
      OFFSET 0 -1.70687 -2.19456
      CHANNELS 3 Zrotation Xrotation Yrotation
      JOINT rShin
      {
        OFFSET 0 -36.8199 0.73152
        CHANNELS 3 Zrotation Xrotation Yrotation
        JOINT rFoot
        {
          OFFSET 0.73152 -45.1104 -5.12064
          CHANNELS 3 Zrotation Xrotation Yrotation
          End Site
          {
            OFFSET -1.1221 -3.69964 12.103
          }
        }
      }
    }
  }
  JOINT lButtock
  {
    OFFSET 8.77824 4.35084 1.2192
    CHANNELS 3 Zrotation Xrotation Yrotation
    JOINT lThigh
    {
      OFFSET 0 -1.70687 -2.19456
      CHANNELS 3 Zrotation Xrotation Yrotation
      JOINT lShin
      {
        OFFSET 0 -36.8199 0.73152
        CHANNELS 3 Zrotation Xrotation Yrotation
        JOINT lFoot
        {
          OFFSET -0.73152 -45.1104 -5.12064
          CHANNELS 3 Zrotation Xrotation Yrotation
          End Site
          {
            OFFSET 1.1221 -3.69964 12.103
          }
        }
      }
    }
  }
}
MOTION
Frames: 6
Frame Time:	0.06666666
6.53218 83.7307 -93.1472 10.8014 2.1403 367.841 10.5946 14.0007 0.784804 12.9517 -8.41364 1.5819 9.25369 -9.51955 3.30263 -22.5539 -7.32194 1.09061 -0.0 0.0 0.0 -0.0 0.0 0.0 -3.62724e-14 -2.67182e-13 -1.3408e-13 55.5586 -13.4072 -18.3039 -15.9399 -8.63149 29.5458 -0.178761 -11.9615 -1.70619 1.07508e-09 -1.4702e-09 -2.80706e-10 1.86443e-09 -2.54598e-09 -4.80931e-10 1.07509e-09 -1.4702e-09 -2.80716e-10 7.73091 5.47488 0.417314 1.07507e-09 -1.4702e-09 -2.80706e-10 2.90554 0.965183 0.102902 1.07508e-09 -1.4702e-09 -2.80711e-10 10.2786 0.731801 0.0259123 1.07507e-09 -1.4702e-09 -2.80706e-10 2.22167 -0.733487 -0.20892 -3.62368e-14 -2.67151e-13 -1.34279e-13 -87.5243 46.5955 8.27513 22.83 -17.0564 -46.096 0.0185163 -3.88179 0.546395 -1.458e-10 6.73902e-10 9.97209e-10 -2.56622e-10 1.15714e-09 1.71984e-09 -1.45811e-10 6.73905e-10 9.97228e-10 -7.73091 5.47488 -0.417314 -1.458e-10 6.73899e-10 9.97212e-10 -2.90554 0.965183 -0.102902 -1.45805e-10 6.73899e-10 9.97217e-10 -10.2786 0.731801 -0.0259123 -1.45799e-10 6.739e-10 9.97215e-10 -2.22167 -0.733487 0.20892 -2.03217e-16 0.0 -3.88251e-19 -21.5164 -35.2189 -9.98764 -0.194798 29.7459 0.168186 -0.996164 2.63912 -14.7773 2.03217e-16 0.0 3.88251e-19 -9.73074 -2.03496 -2.15431 0.173544 27.7961 -0.334089 -0.307723 10.3983 5.61363
6.036 83.9925 -91.5031 10.1647 2.402 367.593 11.6532 14.0975 0.873317 12.6727 -8.44029 1.63456 9.19329 -9.67321 3.2034 -22.1684 -6.99836 0.978738 -0.0 0.0 0.0 -0.0 0.0 0.0 9.89843e-14 -2.14465e-13 1.25023e-13 55.2287 -13.8253 -18.1146 -15.9785 -8.66719 29.6271 -0.188936 -12.2887 -1.75434 1.33955e-09 -8.28475e-10 8.68441e-10 2.3111e-09 -1.43247e-09 1.51182e-09 1.33956e-09 -8.28473e-10 8.68433e-10 7.73091 5.47488 0.417314 1.33955e-09 -8.28472e-10 8.68439e-10 2.90554 0.965183 0.102902 1.33956e-09 -8.28472e-10 8.68437e-10 10.2786 0.731801 0.0259123 1.33955e-09 -8.28472e-10 8.68439e-10 2.22167 -0.733487 -0.20892 9.89406e-14 -2.14512e-13 1.24775e-13 -88.3086 47.7126 8.83746 22.4266 -16.412 -44.9567 0.0184771 -3.85443 0.542545 -1.801e-09 -1.45411e-09 1.30785e-10 -3.11578e-09 -2.52473e-09 2.15016e-10 -1.80101e-09 -1.45411e-09 1.30806e-10 -7.73091 5.47488 -0.417314 -1.801e-09 -1.45412e-09 1.30788e-10 -2.90554 0.965183 -0.102902 -1.80101e-09 -1.45412e-09 1.30794e-10 -10.2786 0.731801 -0.0259123 -1.801e-09 -1.45412e-09 1.30791e-10 -2.22167 -0.733487 0.20892 -2.03217e-16 0.0 -3.88251e-19 -20.1174 -33.7512 -9.89565 -0.190313 29.6038 0.145706 -1.06063 2.20655 -14.6417 2.03217e-16 0.0 3.88251e-19 -8.4982 -4.30359 -2.11719 0.231411 32.2375 -0.401126 -0.40031 14.5405 3.9386
5.50935 84.1986 -89.9011 9.3495 2.8526 367.363 12.7747 14.229 0.914931 12.3752 -8.47671 1.67799 9.14609 -9.80031 3.07908 -21.7899 -6.7683 0.793913 -0.0 0.0 0.0 -0.0 0.0 0.0 2.51089e-13 -1.09672e-13 3.45935e-13 54.9378 -14.1663 -17.8806 -16.031 -8.716 29.7381 -0.204108 -12.7648 -1.82457 1.35363e-09 -4.10088e-10 1.98171e-09 2.3271e-09 -7.0607e-10 3.43976e-09 1.35364e-09 -4.10083e-10 1.98171e-09 7.73091 5.47488 0.417314 1.35363e-09 -4.10084e-10 1.98171e-09 2.90554 0.965183 0.102902 1.35363e-09 -4.10085e-10 1.98171e-09 10.2786 0.731801 0.0259123 1.35362e-09 -4.10083e-10 1.98171e-09 2.22167 -0.733487 -0.20892 2.50959e-13 -1.09786e-13 3.45637e-13 -89.0162 48.7903 9.39846 22.056 -15.8418 -43.9412 0.0161853 -3.62968 0.510809 -3.96498e-09 -4.00047e-09 -7.72713e-10 -6.85465e-09 -6.93031e-09 -1.35374e-09 -3.96498e-09 -4.00048e-09 -7.7269e-10 -7.73091 5.47488 -0.417314 -3.96498e-09 -4.00048e-09 -7.72709e-10 -2.90554 0.965183 -0.102902 -3.96498e-09 -4.00049e-09 -7.72705e-10 -10.2786 0.731801 -0.0259123 -3.96497e-09 -4.00048e-09 -7.72709e-10 -2.22167 -0.733487 0.20892 -2.03217e-16 0.0 -3.88251e-19 -18.6257 -32.1417 -9.72777 -0.183409 29.3583 0.128732 -1.1902 1.57598 -14.829 2.03217e-16 0.0 3.88251e-19 -7.21021 -6.71768 -2.20371 0.30176 36.7253 -0.486957 -0.234244 18.4192 2.1822
5.03 84.3905 -88.3219 8.6849 3.3933 367.09 13.6049 14.3908 0.897468 12.18 -8.4903 1.70214 9.02706 -9.87883 2.90095 -21.3622 -6.63397 0.523577 -0.0 0.0 0.0 -0.0 0.0 0.0 3.46481e-13 5.66879e-14 1.03967e-13 54.686 -14.2134 -17.5612 -16.0957 -8.77649 29.8748 -0.22769 -13.4767 -1.93003 -3.45369e-10 -1.51582e-09 1.37439e-09 -5.98648e-10 -2.62191e-09 2.37162e-09 -3.45356e-10 -1.51582e-09 1.37438e-09 7.73091 5.47488 0.417314 -3.45368e-10 -1.51582e-09 1.37439e-09 2.90554 0.965183 0.102902 -3.45367e-10 -1.51582e-09 1.37439e-09 10.2786 0.731801 0.0259123 -3.45376e-10 -1.51582e-09 1.3744e-09 2.22167 -0.733487 -0.20892 3.46434e-13 5.66193e-14 1.03691e-13 -89.7311 49.6323 10.0423 21.7532 -15.3905 -43.1311 0.0099492 -2.90376 0.408425 -5.89765e-09 -5.71121e-09 -1.35006e-09 -1.01947e-08 -9.88457e-09 -2.34931e-09 -5.89765e-09 -5.71122e-09 -1.35005e-09 -7.73091 5.47488 -0.417314 -5.89765e-09 -5.71122e-09 -1.35006e-09 -2.90554 0.965183 -0.102902 -5.89765e-09 -5.71122e-09 -1.35006e-09 -10.2786 0.731801 -0.0259123 -5.89764e-09 -5.71122e-09 -1.35006e-09 -2.22167 -0.733487 0.20892 -2.03217e-16 0.0 -3.88251e-19 -17.4162 -30.5155 -9.61574 -0.176617 29.2167 0.121664 -1.3629 0.808729 -15.0825 2.03217e-16 0.0 3.88251e-19 -6.21273 -9.09804 -2.52389 0.383792 41.1379 -0.601618 0.13529 20.911 0.491812
4.63986 84.5669 -86.7442 8.3261 3.8903 366.715 14.213 14.5998 0.891805 12.034 -8.46634 1.72378 8.89855 -9.89986 2.70704 -20.9883 -6.64647 0.203528 -0.0 0.0 0.0 -0.0 0.0 0.0 3.52082e-13 2.03557e-13 -1.74086e-13 54.4219 -14.1297 -17.1498 -16.1568 -8.83377 30.0044 -0.252736 -14.169 -2.03336 -2.12456e-09 -2.25135e-09 3.76756e-10 -3.66258e-09 -3.89768e-09 6.27555e-10 -2.12454e-09 -2.25134e-09 3.76746e-10 7.73091 5.47488 0.417314 -2.12456e-09 -2.25134e-09 3.76762e-10 2.90554 0.965183 0.102902 -2.12456e-09 -2.25134e-09 3.76756e-10 10.2786 0.731801 0.0259123 -2.12457e-09 -2.25134e-09 3.76769e-10 2.22167 -0.733487 -0.20892 3.52136e-13 2.03554e-13 -1.74334e-13 -90.3921 50.2719 10.6657 21.4972 -15.02 -42.4515 0.00504217 -2.02707 0.285006 -6.30422e-09 -5.90031e-09 -1.48968e-09 -1.08965e-08 -1.02056e-08 -2.5844e-09 -6.30422e-09 -5.90031e-09 -1.48967e-09 -7.73091 5.47488 -0.417314 -6.30422e-09 -5.90031e-09 -1.48968e-09 -2.90554 0.965183 -0.102902 -6.30422e-09 -5.90031e-09 -1.48968e-09 -10.2786 0.731801 -0.0259123 -6.30421e-09 -5.90031e-09 -1.48969e-09 -2.22167 -0.733487 0.20892 -2.03217e-16 0.0 -3.88251e-19 -16.3831 -28.8836 -9.44328 -0.169745 29.1291 0.121741 -1.56387 -0.00297169 -15.4393 2.03217e-16 0.0 3.88251e-19 -5.45843 -11.3674 -2.85155 0.48337 45.2515 -0.726593 0.381729 22.0613 -0.392462
4.32291 84.7265 -85.1625 8.1604 4.2978 366.275 14.4765 14.9206 0.979737 11.9399 -8.35686 1.75883 8.8181 -9.81724 2.53369 -20.7898 -6.95821 -0.145238 -0.0 0.0 0.0 -0.0 0.0 0.0 1.23692e-13 2.53844e-13 -1.10124e-13 54.0839 -14.0399 -16.5725 -16.1756 -8.85119 30.0447 -0.267763 -14.57 -2.09348 -2.84411e-09 -5.25011e-11 -2.27847e-10 -4.91331e-09 -9.27096e-11 -4.2294e-10 -2.84409e-09 -5.2501e-11 -2.2786e-10 7.73091 5.47488 0.417314 -2.84411e-09 -5.24996e-11 -2.27843e-10 2.90554 0.965183 0.102902 -2.84411e-09 -5.24979e-11 -2.27849e-10 10.2786 0.731801 0.0259123 -2.84411e-09 -5.24943e-11 -2.27838e-10 2.22167 -0.733487 -0.20892 1.23747e-13 2.53853e-13 -1.104e-13 -90.9369 50.6423 11.1564 21.2725 -14.7012 -41.8678 0.00149175 -1.19681 0.168224 -1.92802e-09 -2.00816e-09 -6.03157e-10 -3.32778e-09 -3.46775e-09 -1.04212e-09 -1.92803e-09 -2.00816e-09 -6.03144e-10 -7.73091 5.47488 -0.417314 -1.92802e-09 -2.00816e-09 -6.03152e-10 -2.90554 0.965183 -0.102902 -1.92803e-09 -2.00816e-09 -6.03154e-10 -10.2786 0.731801 -0.0259123 -1.92802e-09 -2.00816e-09 -6.0316e-10 -2.22167 -0.733487 0.20892 -2.03217e-16 0.0 -3.88251e-19 -15.6034 -27.2948 -9.10661 -0.163941 29.1388 0.126644 -1.76018 -0.736762 -15.8354 2.03217e-16 0.0 3.88251e-19 -5.03248 -13.3358 -2.94754 0.593627 48.8331 -0.830661 0.0771129 21.2377 0.724113
